# xmcd
#
# Track frame offsets: 
#        150
#        16262
#        34124
#        60356
#        76085
#        87541
#        92419
#        119275
#        133886
#        152591
#        170188
#        178618
#        197352
#
# Disc length: 2846 seconds
#
# Revision: 0
# Processed by: cddbd v1.5.2PL0 Copyright (c) Steve Scherf et al.
# Submitted via: ExactAudioCopy v0.99pb1
#
DISCID=9b0b1c0d
DTITLE=Billy's Band - Немного Смерти Немного Любви
DYEAR=2004
DGENRE=Blues
TTITLE0=Немного Смерти Немного Любви
TTITLE1=Кафе "Последний Путь"
TTITLE2=Открытка От...
TTITLE3=На Его Месте Должен Быть Я
TTITLE4=Последний День Карлоса
TTITLE5=Дорожная (Интро)
TTITLE6=Дорожная
TTITLE7=Билльярд
TTITLE8=Все Хорошо
TTITLE9=Никогда Не Разговаривай С Мертвецами
TTITLE10=Другая Сторона Дороги
TTITLE11=Муз Замбела
TTITLE12=Поезд В Огне
EXTD=
EXTT0=
EXTT1=
EXTT2=
EXTT3=
EXTT4=
EXTT5=
EXTT6=
EXTT7=
EXTT8=
EXTT9=
EXTT10=
EXTT11=
EXTT12=
PLAYORDER=
